<?xml version="1.0" encoding="iso-8859-1"?>
<!-- Generator: Adobe Illustrator 19.0.0, SVG Export Plug-In . SVG Version: 6.00 Build 0)  -->
<svg version="1.1" id="Capa_1" xmlns="http://www.w3.org/2000/svg" xmlns:xlink="http://www.w3.org/1999/xlink" x="0px" y="0px"
	 viewBox="0 0 512 512" style="enable-background:new 0 0 512 512;" xml:space="preserve">
<path style="fill:#A6E6FD;" d="M115.822,412.537c0-0.012,0.001-0.024,0.001-0.036c0-21.978-17.817-39.795-39.795-39.795
	s-39.795,17.817-39.795,39.795c0,0.012,0.001,0.024,0.001,0.036C16.177,413.286,0,429.914,0,450.145l0,0
	c0,20.704,16.94,37.644,37.644,37.644h76.768c20.704,0,37.644-16.94,37.644-37.644l0,0
	C152.055,429.914,135.878,413.286,115.822,412.537z"/>
<path style="fill:#8DD0E2;" d="M152.05,450.141c0,20.713-16.939,37.651-37.641,37.651H37.648c-10.351,0-19.772-4.24-26.597-11.054
	c-6.277-6.287-10.373-14.787-10.972-24.177c6.411,5.036,14.467,8.056,23.205,8.056h76.772c20.703,0,37.641-16.939,37.641-37.641
	c0-0.817-0.031-1.624-0.083-2.42c1.355,1.075,2.647,2.234,3.847,3.475C148.007,430.813,152.05,440.027,152.05,450.141z"/>
<circle style="fill:#F9D53D;" cx="255.43" cy="214.62" r="103.37"/>
<path style="fill:#EAC321;" d="M358.798,214.624c0,57.082-46.286,103.369-103.369,103.369c-35.397,0-66.637-17.787-85.262-44.911
	c14.581,7.87,31.261,12.326,48.975,12.326c57.093,0,103.369-46.276,103.369-103.369c0-21.716-6.691-41.85-18.128-58.478
	C336.782,141.006,358.798,175.245,358.798,214.624z"/>
<path style="fill:#A6E6FD;" d="M456.299,241.541c0-0.018,0.001-0.037,0.001-0.055c0-33.784-27.388-61.172-61.172-61.172
	s-61.172,27.387-61.172,61.172c0,0.019,0.001,0.037,0.001,0.055c-30.83,1.152-55.697,26.711-55.697,57.809l0,0
	c0,31.826,26.039,57.865,57.865,57.865H454.13c31.826,0,57.865-26.039,57.865-57.865l0,0
	C511.996,268.251,487.129,242.693,456.299,241.541z"/>
<path style="fill:#8DD0E2;" d="M512,299.348c0,31.83-26.039,57.868-57.868,57.868H336.13c-15.915,0-30.382-6.505-40.868-17.001
	c-6.391-6.38-11.303-14.24-14.157-23.009c9.379,6.577,20.775,10.444,33.04,10.444h118.012c31.819,0,57.858-26.039,57.858-57.868
	c0-6.225-0.993-12.233-2.833-17.859c3.071,2.161,5.936,4.602,8.531,7.29C505.785,269.638,512,283.805,512,299.348z"/>
<g>
	<path style="fill:#EAC321;" d="M255.426,72.053c4.284,0,7.756-3.472,7.756-7.756V31.964c0-4.283-3.472-7.756-7.756-7.756
		c-4.283,0-7.756,3.472-7.756,7.756v32.333C247.671,68.58,251.143,72.053,255.426,72.053z"/>
	<path style="fill:#EAC321;" d="M255.426,357.188c-4.283,0-7.756,3.473-7.756,7.756v32.333c0,4.283,3.472,7.756,7.756,7.756
		s7.756-3.472,7.756-7.756v-32.333C263.182,360.661,259.71,357.188,255.426,357.188z"/>
	<path style="fill:#EAC321;" d="M143.647,113.81c1.514,1.514,3.499,2.272,5.484,2.272s3.97-0.757,5.484-2.272
		c3.029-3.029,3.029-7.94,0-10.968l-22.863-22.863c-3.029-3.029-7.94-3.029-10.968,0c-3.029,3.029-3.029,7.94,0,10.968
		L143.647,113.81z"/>
	<path style="fill:#EAC321;" d="M72.769,222.377h32.333c4.283,0,7.756-3.472,7.756-7.756c0-4.283-3.473-7.756-7.756-7.756H72.769
		c-4.283,0-7.756,3.472-7.756,7.756C65.013,218.904,68.486,222.377,72.769,222.377z"/>
	<path style="fill:#EAC321;" d="M126.268,351.534c1.985,0,3.97-0.757,5.484-2.272l22.863-22.863c3.029-3.029,3.029-7.94,0-10.968
		c-3.029-3.029-7.939-3.029-10.968,0l-22.863,22.863c-3.029,3.029-3.029,7.94,0,10.968
		C122.298,350.777,124.283,351.534,126.268,351.534z"/>
	<path style="fill:#EAC321;" d="M361.721,116.081c1.984,0,3.97-0.757,5.485-2.272l22.863-22.863c3.029-3.029,3.029-7.94,0-10.968
		c-3.029-3.029-7.939-3.029-10.969,0l-22.863,22.863c-3.029,3.029-3.029,7.94,0,10.968
		C357.751,115.325,359.735,116.081,361.721,116.081z"/>
</g>
<g>
</g>
<g>
</g>
<g>
</g>
<g>
</g>
<g>
</g>
<g>
</g>
<g>
</g>
<g>
</g>
<g>
</g>
<g>
</g>
<g>
</g>
<g>
</g>
<g>
</g>
<g>
</g>
<g>
</g>
</svg>
