<?xml version="1.0" encoding="iso-8859-1"?>
<!-- Generator: Adobe Illustrator 19.0.0, SVG Export Plug-In . SVG Version: 6.00 Build 0)  -->
<svg version="1.1" id="Capa_1" xmlns="http://www.w3.org/2000/svg" xmlns:xlink="http://www.w3.org/1999/xlink" x="0px" y="0px"
	 viewBox="0 0 512 512" style="enable-background:new 0 0 512 512;" xml:space="preserve">
<path style="fill:#8AB9F8;" d="M51,69.5c0,13.675,0,81.821,0,95.5h30v-23.161L175.046,220h161.908L431,141.839V165h30
	c0-10.239,0-84.773,0-95.5H51z M326.115,190h-140.23L81,102.83V99.5h350v3.33L326.115,190z"/>
<path style="fill:#5B8AFF;" d="M256,69.5v30h175v3.33L326.115,190H256v30h80.954L431,141.839V165h30c0-10.239,0-84.773,0-95.5H256z"
	/>
<path style="fill:#C2DCFF;" d="M293.061,0h-74.122l-121.4,461h316.923L293.061,0z M160.294,340.5h140.752l-161.25,77.839
	L160.294,340.5z M197.695,310.5l125.469-78.387l20.643,78.387H197.695z M353.776,348.359L375.539,431h-192.96L353.776,348.359z
	 M242.061,30h27.878l45.225,171.736l-141.63,88.484L242.061,30z"/>
<polygon style="fill:#AED0FE;" points="293.061,0 256,0 256,30 269.939,30 315.164,201.736 256,238.699 256,274.073 
	323.163,232.113 343.806,310.5 256,310.5 256,340.5 301.046,340.5 256,362.245 256,395.558 353.776,348.359 375.539,431 256,431 
	256,461 414.461,461 "/>
<rect x="51" y="431" style="fill:#FB6338;" width="410" height="81"/>
<rect x="256" y="431" style="fill:#DE3800;" width="205" height="81"/>
<g>
</g>
<g>
</g>
<g>
</g>
<g>
</g>
<g>
</g>
<g>
</g>
<g>
</g>
<g>
</g>
<g>
</g>
<g>
</g>
<g>
</g>
<g>
</g>
<g>
</g>
<g>
</g>
<g>
</g>
</svg>
