<?xml version="1.0" encoding="iso-8859-1"?>
<!-- Generator: Adobe Illustrator 19.0.0, SVG Export Plug-In . SVG Version: 6.00 Build 0)  -->
<svg version="1.1" id="Capa_1" xmlns="http://www.w3.org/2000/svg" xmlns:xlink="http://www.w3.org/1999/xlink" x="0px" y="0px"
	 viewBox="0 0 512 512" style="enable-background:new 0 0 512 512;" xml:space="preserve">
<path style="fill:#966464;" d="M256,330.323c-63.433-6.343-117.119-30.823-138.605-41.834c-5.658-2.9-8.189-9.547-5.857-15.462
	c7.062-17.917,12.336-56.763,12.336-91.349l-0.004-24.774H256h132.129l-0.004,24.774c0,34.586,5.275,73.432,12.336,91.349
	c2.331,5.915-0.199,12.563-5.857,15.462C373.119,299.499,319.433,323.979,256,330.323z"/>
<path style="fill:#EBC9A0;" d="M403.798,360.32l-73.051-24.35c-10.116-3.372-16.94-12.839-16.94-23.503v-39.95H198.194v39.95
	c0,10.664-6.824,20.131-16.94,23.503l-73.051,24.35c-20.233,6.744-33.88,25.679-33.88,47.006v88.158
	c0,9.122,7.395,16.516,16.516,16.516h330.323c9.122,0,16.516-7.395,16.516-16.516v-88.159
	C437.677,385.998,424.03,367.064,403.798,360.32z"/>
<path style="fill:#96C3F0;" d="M403.798,360.32l-58.824-19.608c-16.106,32.935-49.841,55.675-88.974,55.675
	s-72.867-22.74-88.974-55.675l-58.824,19.608c-20.233,6.744-33.88,25.678-33.88,47.006v88.158c0,9.121,7.395,16.516,16.516,16.516
	h330.323c9.121,0,16.516-7.395,16.516-16.516v-88.159C437.677,385.998,424.03,367.064,403.798,360.32z"/>
<path style="fill:#7DA5D7;" d="M143.355,348.602c19.52,42.773,62.558,72.559,112.645,72.559s93.126-29.786,112.645-72.559
	l-23.671-7.891c-16.106,32.935-49.841,55.675-88.974,55.675s-72.867-22.74-88.974-55.675L143.355,348.602z"/>
<path style="fill:#D7AF87;" d="M198.194,306.471c17.019,9.858,36.723,15.593,57.806,15.593s40.787-5.735,57.806-15.593v-33.955
	H198.194V306.471z"/>
<path style="fill:#F5DCB4;" d="M355.097,156.903H156.903c-13.682,0-24.774,11.092-24.774,24.774s11.092,24.774,24.774,24.774
	c0,54.729,44.367,99.097,99.097,99.097s99.097-44.367,99.097-99.097c13.682,0,24.774-11.092,24.774-24.774
	C379.871,167.995,368.779,156.903,355.097,156.903z"/>
<path style="fill:#EBC9A0;" d="M355.097,156.903H156.903c-13.682,0-24.774,11.092-24.774,24.774h247.742
	C379.871,167.995,368.779,156.903,355.097,156.903z"/>
<path style="fill:#D7AF87;" d="M256,256c-18.597,0-34.5-8.75-39.556-21.782c-1.653-4.25,0.452-9.04,4.702-10.685
	c4.242-1.669,9.04,0.452,10.685,4.702c2.121,5.452,11.315,11.25,24.169,11.25c12.855,0,22.048-5.798,24.169-11.25
	c1.645-4.25,6.435-6.379,10.685-4.702c4.25,1.645,6.355,6.435,4.702,10.685C290.5,247.25,274.597,256,256,256z"/>
<path style="fill:#FFD164;" d="M256,8.258L256,8.258c-72.973,0-132.129,59.156-132.129,132.129v16.516h264.258v-16.516
	C388.129,67.414,328.973,8.258,256,8.258z"/>
<path style="fill:#FFC350;" d="M253.248,8.289c-13.465,0.304-27.737,2.324-42.23,7.838c-52.566,20.002-87.147,64.131-87.147,131.668
	v9.107h66.065v-16.517c0-49.478,27.235-92.505,67.509-115.108C255.187,16.138,255.506,17.43,253.248,8.289z"/>
<g>
	<path style="fill:#6E4848;" d="M206.444,189.935c-4.565,0-8.258-3.694-8.258-8.258v-24.774c0-4.565,3.694-8.258,8.258-8.258
		c4.565,0,8.258,3.694,8.258,8.258v24.774C214.702,186.242,211.008,189.935,206.444,189.935z"/>
	<path style="fill:#6E4848;" d="M305.54,189.935c-4.565,0-8.258-3.694-8.258-8.258v-24.774c0-4.565,3.694-8.258,8.258-8.258
		c4.564,0,8.258,3.694,8.258,8.258v24.774C313.798,186.242,310.105,189.935,305.54,189.935z"/>
</g>
<g>
	<path style="fill:#FFE17D;" d="M264.258,0h-16.516c-4.561,0-8.258,3.697-8.258,8.258v148.645h33.032V8.258
		C272.516,3.697,268.819,0,264.258,0z"/>
	<path style="fill:#FFE17D;" d="M340.232,28.077l-15.35-11.512c-4.564-3.423-11.076-0.166-11.076,5.538v134.8h33.032V41.29
		C346.839,36.092,344.391,31.197,340.232,28.077z"/>
	<path style="fill:#FFE17D;" d="M187.117,16.565l-15.35,11.512c-4.159,3.119-6.606,8.015-6.606,13.213v115.613h33.032v-134.8
		C198.194,16.399,191.681,13.142,187.117,16.565z"/>
</g>
<g>
	<path style="fill:#FFD164;" d="M404.645,165.161h-297.29c-4.565,0-8.258-3.694-8.258-8.258s3.694-8.258,8.258-8.258h297.29
		c4.565,0,8.258,3.694,8.258,8.258S409.21,165.161,404.645,165.161z"/>
	<polygon style="fill:#FFD164;" points="165.161,341.333 132.129,352.344 132.129,470.71 165.161,470.71 	"/>
</g>
<path style="fill:#FFC350;" d="M165.161,381.257v-39.923l-21.806,7.269C148.859,360.662,156.287,371.638,165.161,381.257z"/>
<polygon style="fill:#FFD164;" points="346.839,341.333 379.871,352.344 379.871,470.71 346.839,470.71 "/>
<path style="fill:#FFC350;" d="M346.839,381.257v-39.923l21.806,7.269C363.141,360.662,355.713,371.638,346.839,381.257z"/>
<path style="fill:#FFE17D;" d="M355.097,445.935H156.903c-13.682,0-24.774,11.092-24.774,24.774V512h247.742v-41.29
	C379.871,457.027,368.779,445.935,355.097,445.935z"/>
<g>
	<circle style="fill:#9C969E;" cx="350.97" cy="474.84" r="12.387"/>
	<circle style="fill:#9C969E;" cx="161.03" cy="474.84" r="12.387"/>
</g>
<g>
</g>
<g>
</g>
<g>
</g>
<g>
</g>
<g>
</g>
<g>
</g>
<g>
</g>
<g>
</g>
<g>
</g>
<g>
</g>
<g>
</g>
<g>
</g>
<g>
</g>
<g>
</g>
<g>
</g>
</svg>
